<?xml version="1.0" encoding="UTF-8" standalone="no"?>
<!DOCTYPE svg PUBLIC "-//W3C//DTD SVG 1.1//EN"
 "http://www.w3.org/Graphics/SVG/1.1/DTD/svg11.dtd">
<!-- Generated by graphviz version 2.40.1 (20161225.0304)
 -->
<!-- Title: trainingstep Pages: 1 -->
<svg width="1135pt" height="198pt"
 viewBox="0.00 0.00 1135.49 198.00" xmlns="http://www.w3.org/2000/svg" xmlns:xlink="http://www.w3.org/1999/xlink">
<g id="graph0" class="graph" transform="scale(1 1) rotate(0) translate(4 194)">
<title>trainingstep</title>
<polygon fill="#ffffff" stroke="transparent" points="-4,4 -4,-194 1131.4897,-194 1131.4897,4 -4,4"/>
<!-- aug -->
<g id="node1" class="node">
<title>aug</title>
<text text-anchor="middle" x="163.8507" y="-88.2" font-family="Palatino" font-size="14.00" fill="#000000">augmentation &amp;</text>
<text text-anchor="middle" x="163.8507" y="-71.4" font-family="Palatino" font-size="14.00" fill="#000000"> encoding</text>
</g>
<!-- xs -->
<g id="node7" class="node">
<title>xs</title>
<ellipse fill="#f5f5f5" stroke="#000000" stroke-width="0" cx="289.325" cy="-118" rx="27" ry="18"/>
<text text-anchor="middle" x="289.325" y="-113.8" font-family="Palatino" font-size="14.00" fill="#000000">xs</text>
</g>
<!-- aug&#45;&gt;xs -->
<g id="edge3" class="edge">
<title>aug&#45;&gt;xs</title>
<path fill="none" stroke="#000000" d="M217.0631,-98.4191C231.8327,-102.4212 247.3234,-106.6187 260.1574,-110.0964"/>
<polygon fill="#000000" stroke="#000000" points="259.8244,-111.4566 264.0514,-111.1516 260.5568,-108.754 259.8244,-111.4566"/>
</g>
<!-- ys -->
<g id="node8" class="node">
<title>ys</title>
<ellipse fill="#f5f5f5" stroke="#000000" stroke-width="0" cx="369.501" cy="-72" rx="27" ry="18"/>
<text text-anchor="middle" x="369.501" y="-67.8" font-family="Palatino" font-size="14.00" fill="#000000">ys</text>
</g>
<!-- aug&#45;&gt;ys -->
<g id="edge4" class="edge">
<title>aug&#45;&gt;ys</title>
<path fill="none" stroke="#000000" d="M217.0782,-80.8941C255.5753,-78.6477 306.2691,-75.6897 338.3817,-73.8159"/>
<polygon fill="#000000" stroke="#000000" points="338.6803,-75.2009 342.5919,-73.5702 338.5171,-72.4057 338.6803,-75.2009"/>
</g>
<!-- forward -->
<g id="node2" class="node">
<title>forward</title>
<polygon fill="#f5f5f5" stroke="transparent" stroke-width="0" points="474.9563,-141.6019 414.3487,-141.6019 414.3487,-100.3981 474.9563,-100.3981 474.9563,-141.6019"/>
<text text-anchor="middle" x="444.6525" y="-125.2" font-family="Palatino" font-size="14.00" fill="#000000">forward</text>
<text text-anchor="middle" x="444.6525" y="-108.4" font-family="Palatino" font-size="14.00" fill="#000000">pass</text>
</g>
<!-- ypreds -->
<g id="node10" class="node">
<title>ypreds</title>
<ellipse fill="#f5f5f5" stroke="#000000" stroke-width="0" cx="548.583" cy="-119" rx="36.5594" ry="18"/>
<text text-anchor="middle" x="548.583" y="-114.8" font-family="Palatino" font-size="14.00" fill="#000000">ypreds</text>
</g>
<!-- forward&#45;&gt;ypreds -->
<g id="edge7" class="edge">
<title>forward&#45;&gt;ypreds</title>
<path fill="none" stroke="#000000" d="M474.9929,-120.4161C485.1485,-120.2207 496.6453,-119.9995 507.4822,-119.7909"/>
<polygon fill="#000000" stroke="#000000" points="507.7859,-121.1854 511.7582,-119.7086 507.7319,-118.386 507.7859,-121.1854"/>
</g>
<!-- lossfn -->
<g id="node3" class="node">
<title>lossfn</title>
<polygon fill="#f5f5f5" stroke="transparent" stroke-width="0" points="684.8476,-92.6019 622.5329,-92.6019 622.5329,-51.3981 684.8476,-51.3981 684.8476,-92.6019"/>
<text text-anchor="middle" x="653.6903" y="-76.2" font-family="Palatino" font-size="14.00" fill="#000000">loss</text>
<text text-anchor="middle" x="653.6903" y="-59.4" font-family="Palatino" font-size="14.00" fill="#000000">function</text>
</g>
<!-- loss -->
<g id="node11" class="node">
<title>loss</title>
<ellipse fill="#f5f5f5" stroke="#000000" stroke-width="0" cx="749.0185" cy="-72" rx="27" ry="18"/>
<text text-anchor="middle" x="749.0185" y="-67.8" font-family="Palatino" font-size="14.00" fill="#000000">loss</text>
</g>
<!-- lossfn&#45;&gt;loss -->
<g id="edge10" class="edge">
<title>lossfn&#45;&gt;loss</title>
<path fill="none" stroke="#000000" d="M684.9043,-72C695.4504,-72 707.2212,-72 717.77,-72"/>
<polygon fill="#000000" stroke="#000000" points="717.9005,-73.4001 721.9005,-72 717.9004,-70.6001 717.9005,-73.4001"/>
</g>
<!-- weightup -->
<g id="node4" class="node">
<title>weightup</title>
<polygon fill="#f5f5f5" stroke="transparent" stroke-width="0" points="1127.4508,-48 1032.6064,-48 1032.6064,-12 1127.4508,-12 1127.4508,-48"/>
<text text-anchor="middle" x="1080.0286" y="-25.8" font-family="Palatino" font-size="14.00" fill="#000000">weight update</text>
</g>
<!-- model -->
<g id="node9" class="node">
<title>model</title>
<ellipse fill="#f5f5f5" stroke="#000000" stroke-width="0" cx="289.325" cy="-172" rx="35.3528" ry="18"/>
<text text-anchor="middle" x="289.325" y="-167.8" font-family="Palatino" font-size="14.00" fill="#000000">model</text>
</g>
<!-- weightup&#45;&gt;model -->
<g id="edge14" class="edge">
<title>weightup&#45;&gt;model</title>
<path fill="none" stroke="#000000" d="M1063.8903,-48.1006C1048.1901,-64.4012 1022.779,-87.5101 995.5675,-99 758.444,-199.1238 438.265,-184.4788 328.292,-175.6786"/>
<polygon fill="#000000" stroke="#000000" points="328.255,-174.2711 324.1547,-175.3423 328.0281,-177.0619 328.255,-174.2711"/>
</g>
<!-- inputs -->
<g id="node5" class="node">
<title>inputs</title>
<ellipse fill="#f5f5f5" stroke="#000000" stroke-width="0" cx="36.7761" cy="-111" rx="34.7903" ry="18"/>
<text text-anchor="middle" x="36.7761" y="-106.8" font-family="Palatino" font-size="14.00" fill="#000000">inputs</text>
</g>
<!-- inputs&#45;&gt;aug -->
<g id="edge1" class="edge">
<title>inputs&#45;&gt;aug</title>
<path fill="none" stroke="#000000" d="M69.1712,-104.1169C80.4999,-101.7098 93.5835,-98.9299 106.3401,-96.2195"/>
<polygon fill="#000000" stroke="#000000" points="106.6645,-97.5819 110.2862,-95.381 106.0826,-94.843 106.6645,-97.5819"/>
</g>
<!-- targets -->
<g id="node6" class="node">
<title>targets</title>
<ellipse fill="#f5f5f5" stroke="#000000" stroke-width="0" cx="36.7761" cy="-57" rx="36.5536" ry="18"/>
<text text-anchor="middle" x="36.7761" y="-52.8" font-family="Palatino" font-size="14.00" fill="#000000">targets</text>
</g>
<!-- targets&#45;&gt;aug -->
<g id="edge2" class="edge">
<title>targets&#45;&gt;aug</title>
<path fill="none" stroke="#000000" d="M70.8298,-64.2355C81.7942,-66.5652 94.2638,-69.2146 106.4314,-71.7999"/>
<polygon fill="#000000" stroke="#000000" points="106.3399,-73.2117 110.5436,-72.6736 106.9219,-70.4728 106.3399,-73.2117"/>
</g>
<!-- xs&#45;&gt;forward -->
<g id="edge5" class="edge">
<title>xs&#45;&gt;forward</title>
<path fill="none" stroke="#000000" d="M316.381,-118.5226C342.477,-119.0266 382.0752,-119.7914 410.367,-120.3378"/>
<polygon fill="#000000" stroke="#000000" points="410.4299,-121.7392 414.4562,-120.4168 410.484,-118.9397 410.4299,-121.7392"/>
</g>
<!-- ys&#45;&gt;lossfn -->
<g id="edge8" class="edge">
<title>ys&#45;&gt;lossfn</title>
<path fill="none" stroke="#000000" d="M396.7503,-72C448.4406,-72 560.6923,-72 618.1883,-72"/>
<polygon fill="#000000" stroke="#000000" points="618.2318,-73.4001 622.2318,-72 618.2317,-70.6001 618.2318,-73.4001"/>
</g>
<!-- model&#45;&gt;forward -->
<g id="edge6" class="edge">
<title>model&#45;&gt;forward</title>
<path fill="none" stroke="#000000" d="M319.2737,-162.1667C345.3214,-153.6142 383.0603,-141.2231 410.3222,-132.272"/>
<polygon fill="#000000" stroke="#000000" points="410.9021,-133.5552 414.2658,-130.9771 410.0286,-130.8949 410.9021,-133.5552"/>
</g>
<!-- ypreds&#45;&gt;lossfn -->
<g id="edge9" class="edge">
<title>ypreds&#45;&gt;lossfn</title>
<path fill="none" stroke="#000000" d="M575.9243,-106.774C588.9344,-100.9564 604.6461,-93.9307 618.5316,-87.7216"/>
<polygon fill="#000000" stroke="#000000" points="619.3158,-88.9046 622.3959,-85.9937 618.1728,-86.3485 619.3158,-88.9046"/>
</g>
<!-- grads -->
<g id="node12" class="node">
<title>grads</title>
<ellipse fill="#f5f5f5" stroke="#000000" stroke-width="0" cx="947.5227" cy="-72" rx="31.9012" ry="18"/>
<text text-anchor="middle" x="947.5227" y="-67.8" font-family="Palatino" font-size="14.00" fill="#000000">grads</text>
</g>
<!-- loss&#45;&gt;grads -->
<g id="edge11" class="edge">
<title>loss&#45;&gt;grads</title>
<path fill="none" stroke="#000000" d="M776.2034,-72C811.2411,-72 872.2756,-72 911.2445,-72"/>
<polygon fill="#000000" stroke="#000000" points="911.4141,-73.4001 915.4141,-72 911.4141,-70.6001 911.4141,-73.4001"/>
<text text-anchor="middle" x="837.7482" y="-76.2" font-family="Times,serif" font-size="14.00" fill="#000000">backwards pass</text>
</g>
<!-- grads&#45;&gt;weightup -->
<g id="edge12" class="edge">
<title>grads&#45;&gt;weightup</title>
<path fill="none" stroke="#000000" d="M975.6238,-63.0929C990.9498,-58.235 1010.4078,-52.0675 1028.362,-46.3766"/>
<polygon fill="#000000" stroke="#000000" points="1029.0173,-47.6376 1032.4074,-45.0944 1028.1713,-44.9685 1029.0173,-47.6376"/>
</g>
<!-- optimizer -->
<g id="node13" class="node">
<title>optimizer</title>
<ellipse fill="#f5f5f5" stroke="#000000" stroke-width="0" cx="947.5227" cy="-18" rx="48.0897" ry="18"/>
<text text-anchor="middle" x="947.5227" y="-13.8" font-family="Palatino" font-size="14.00" fill="#000000">optimizer</text>
</g>
<!-- optimizer&#45;&gt;weightup -->
<g id="edge13" class="edge">
<title>optimizer&#45;&gt;weightup</title>
<path fill="none" stroke="#000000" d="M994.2393,-22.2308C1005.2552,-23.2284 1017.0624,-24.2977 1028.2854,-25.314"/>
<polygon fill="#000000" stroke="#000000" points="1028.2813,-26.7193 1032.3913,-25.6859 1028.5339,-23.9307 1028.2813,-26.7193"/>
</g>
</g>
</svg>
